<svg width="231" height="45" viewBox="0 0 231 45" fill="none" xmlns="http://www.w3.org/2000/svg">
<path d="M37.8833 27.2361C34.7805 27.2361 32.2652 24.7208 32.2652 21.6181C32.2652 18.5153 34.7805 16 37.8833 16C40.986 16 43.5013 18.5153 43.5013 21.6181C43.5013 24.7208 40.986 27.2361 37.8833 27.2361Z" fill="#68E1FD"/>
<path opacity="0.09" d="M34.945 21.4242C34.945 21.4242 33.9172 17.4911 36.9567 16.0768C36.9567 16.0768 32.4578 16.6645 32.2652 21.6181L34.945 21.4242Z" fill="black"/>
<path d="M25.0024 24.282C25.0024 22.6227 30.7692 21.3425 37.8832 21.3425C44.9972 21.3425 50.7653 22.6836 50.7653 24.3466V25.3903H49.9679C48.1501 26.5351 43.4257 27.3519 37.8832 27.3519C32.3408 27.3519 27.6176 26.5351 25.7998 25.3903H25.1902C25.1397 25.3903 25.0914 25.3702 25.0557 25.3346C25.02 25.2989 25 25.2505 25 25.2001L25.0024 24.282Z" fill="#C9C9C9"/>
<path d="M37.8833 28.2493C30.7694 28.2493 25.0025 26.9037 25.0025 25.2439C25.0025 23.5841 30.7694 22.2386 37.8833 22.2386C44.9971 22.2386 50.7641 23.5841 50.7641 25.2439C50.7641 26.9037 44.9971 28.2493 37.8833 28.2493Z" fill="#E6E6E6"/>
<path d="M37.8832 28.2127C35.5744 28.2127 33.7026 27.776 33.7026 27.2373C33.7026 26.6986 35.5744 26.262 37.8832 26.262C40.1921 26.262 42.0639 26.6986 42.0639 27.2373C42.0639 27.776 40.1921 28.2127 37.8832 28.2127Z" fill="#24285B"/>
<path opacity="0.09" d="M33.7038 27.2373C33.7038 27.2373 29.4245 24.3356 34.9462 22.2386V21.4242C34.9462 21.4242 25.2012 21.8899 25.0037 24.282V25.2439C25.0037 25.2439 24.6318 27.2373 33.8806 28.1017L33.7038 27.2373Z" fill="black"/>
<path d="M42.0639 27.2373C42.0639 27.2373 41.5372 29.6477 42.7417 30.3207C43.9463 30.9937 45.2594 32.4128 44.3023 33.9783C43.3452 35.5437 43.0831 37.5237 44.6315 38.1613C46.1799 38.799 46.5712 42.3554 46.5712 42.3554H29.6622C29.6622 42.3554 29.4842 38.126 31.469 37.2347C33.4539 36.3435 31.8238 36.029 32.498 32.8749C33.1723 29.7208 34.8377 31.8105 33.7026 27.2386L42.0639 27.2373Z" fill="#24285B"/>
<path d="M40.4033 28.7662C40.3057 28.7662 40.2265 28.6871 40.2265 28.5894C40.2265 28.4918 40.3057 28.4127 40.4033 28.4127C40.501 28.4127 40.5801 28.4918 40.5801 28.5894C40.5801 28.6871 40.501 28.7662 40.4033 28.7662Z" fill="white"/>
<path d="M42.8954 33.1285C42.7977 33.1285 42.7186 33.0494 42.7186 32.9517C42.7186 32.8541 42.7977 32.7749 42.8954 32.7749C42.993 32.7749 43.0721 32.8541 43.0721 32.9517C43.0721 33.0494 42.993 33.1285 42.8954 33.1285Z" fill="white"/>
<path d="M31.6007 38.3698C31.5031 38.3698 31.424 38.2907 31.424 38.1931C31.424 38.0954 31.5031 38.0163 31.6007 38.0163C31.6984 38.0163 31.7775 38.0954 31.7775 38.1931C31.7775 38.2907 31.6984 38.3698 31.6007 38.3698Z" fill="white"/>
<path d="M36.4861 39.5829C36.3884 39.5829 36.3093 39.5038 36.3093 39.4062C36.3093 39.3085 36.3884 39.2294 36.4861 39.2294C36.5837 39.2294 36.6628 39.3085 36.6628 39.4062C36.6628 39.5038 36.5837 39.5829 36.4861 39.5829Z" fill="white"/>
<path d="M39.7376 41.6946C39.64 41.6946 39.5609 41.6154 39.5609 41.5178C39.5609 41.4202 39.64 41.341 39.7376 41.341C39.8353 41.341 39.9144 41.4202 39.9144 41.5178C39.9144 41.6154 39.8353 41.6946 39.7376 41.6946Z" fill="white"/>
<path d="M43.3257 39.0087C43.2281 39.0087 43.149 38.9295 43.149 38.8319C43.149 38.7343 43.2281 38.6551 43.3257 38.6551C43.4234 38.6551 43.5025 38.7343 43.5025 38.8319C43.5025 38.9295 43.4234 39.0087 43.3257 39.0087Z" fill="white"/>
<path d="M34.3378 32.0483C34.2402 32.0483 34.1611 31.9692 34.1611 31.8715C34.1611 31.7739 34.2402 31.6947 34.3378 31.6947C34.4355 31.6947 34.5146 31.7739 34.5146 31.8715C34.5146 31.9692 34.4355 32.0483 34.3378 32.0483Z" fill="white"/>
<path d="M36.0191 27.5324C35.9215 27.5324 35.8423 27.4533 35.8423 27.3556C35.8423 27.258 35.9215 27.1788 36.0191 27.1788C36.1167 27.1788 36.1959 27.258 36.1959 27.3556C36.1959 27.4533 36.1167 27.5324 36.0191 27.5324Z" fill="white"/>
<path opacity="0.23" d="M39.1782 18.8931C38.4655 18.6636 38.0264 18.0468 38.1975 17.5155C38.3686 16.9841 39.0851 16.7395 39.7978 16.969C40.5105 17.1985 40.9496 17.8153 40.7785 18.3466C40.6074 18.8779 39.8909 19.1226 39.1782 18.8931Z" fill="white"/>
<path d="M38.882 29.9831L38.0619 30.176L38.5232 32.1366L39.3433 31.9437L38.882 29.9831Z" fill="#68E1FD"/>
<path opacity="0.45" d="M38.882 29.9831L38.0619 30.176L38.5232 32.1366L39.3433 31.9437L38.882 29.9831Z" fill="white"/>
<path d="M39.9951 32.4862L35.2848 33.5945L36.0624 36.8997L40.7728 35.7914L39.9951 32.4862Z" fill="white"/>
<path d="M40.5716 32.3531L34.7133 33.7308L37.0225 30.0122L40.5716 32.3531Z" fill="#68E1FD"/>
<path d="M39.3041 34.0217L38.0271 34.3221L38.499 36.3278L39.776 36.0273L39.3041 34.0217Z" fill="#24285B"/>
<path d="M37.3029 33.6975L36.0034 34.0033L36.277 35.1664L37.5765 34.8606L37.3029 33.6975Z" fill="#68E1FD"/>
<path d="M41.3311 35.5827L35.4448 37.0067C34.728 37.1811 34.8023 38.2259 35.5375 38.2918C35.6855 38.3028 35.8343 38.2979 35.9813 38.2771C37.5236 38.0809 37.2322 37.8699 38.1844 37.859C39.7693 37.8419 40.1022 36.8946 40.8581 36.9555C41.3787 36.997 42.0187 36.8251 42.1309 36.3301C42.2382 35.8717 41.7895 35.4718 41.3311 35.5827Z" fill="#FFD200"/>
<path d="M48.7304 34.8902C48.8909 34.9746 49.0305 35.0936 49.1391 35.2387C49.2477 35.3838 49.3226 35.5513 49.3583 35.729C49.4266 36.1082 49.2974 36.541 48.4159 36.641C46.7724 36.8287 45.919 35.3706 46.7188 34.6976C47.2796 34.2233 48.2123 34.6147 48.7304 34.8902Z" fill="#FFD200"/>
<path d="M48.8865 34.5013C49.0465 34.5853 49.1859 34.7038 49.2944 34.8482C49.403 34.9926 49.4782 35.1594 49.5144 35.3364C49.5827 35.7156 49.4534 36.1484 48.5719 36.2484C46.9285 36.4349 46.075 34.978 46.8748 34.305C47.4357 33.8344 48.3744 34.2258 48.8865 34.5013Z" fill="#FFD200"/>
<path opacity="0.09" d="M48.8865 34.5013C49.0465 34.5853 49.1859 34.7038 49.2944 34.8482C49.403 34.9926 49.4782 35.1594 49.5144 35.3364C49.5827 35.7156 49.4534 36.1484 48.5719 36.2484C46.9285 36.4349 46.075 34.978 46.8748 34.305C47.4357 33.8344 48.3744 34.2258 48.8865 34.5013Z" fill="black"/>
<path d="M33.6734 28.6406C33.7745 28.5695 33.8902 28.5217 34.012 28.5007C34.1339 28.4796 34.2589 28.4857 34.3781 28.5187C34.6329 28.5979 34.8596 28.8137 34.6329 29.3843C34.2159 30.4365 33.0613 30.4816 32.9138 29.7818C32.8102 29.299 33.3381 28.8613 33.6734 28.6406Z" fill="#FFD200"/>
<path d="M33.8623 28.4309C33.9635 28.3599 34.0792 28.3121 34.201 28.291C34.3228 28.2699 34.4478 28.2761 34.567 28.309C34.8218 28.387 35.0486 28.6041 34.8218 29.1746C34.4049 30.2268 33.2503 30.2719 33.1028 29.5721C32.9991 29.0893 33.5307 28.6577 33.8623 28.4309Z" fill="#FFD200"/>
<path opacity="0.09" d="M33.8623 28.4309C33.9635 28.3599 34.0792 28.3121 34.201 28.291C34.3228 28.2699 34.4478 28.2761 34.567 28.309C34.8218 28.387 35.0486 28.6041 34.8218 29.1746C34.4049 30.2268 33.2503 30.2719 33.1028 29.5721C32.9991 29.0893 33.5307 28.6577 33.8623 28.4309Z" fill="black"/>
<path d="M28.3955 37.8578C27.8379 37.8578 27.386 37.4058 27.386 36.8483C27.386 36.2907 27.8379 35.8388 28.3955 35.8388C28.953 35.8388 29.405 36.2907 29.405 36.8483C29.405 37.4058 28.953 37.8578 28.3955 37.8578Z" fill="#FFD200"/>
<path d="M28.6381 37.4798C28.0806 37.4798 27.6286 37.0278 27.6286 36.4703C27.6286 35.9128 28.0806 35.4608 28.6381 35.4608C29.1956 35.4608 29.6476 35.9128 29.6476 36.4703C29.6476 37.0278 29.1956 37.4798 28.6381 37.4798Z" fill="#FFD200"/>
<path opacity="0.09" d="M28.6381 37.4798C28.0806 37.4798 27.6286 37.0278 27.6286 36.4703C27.6286 35.9128 28.0806 35.4608 28.6381 35.4608C29.1956 35.4608 29.6476 35.9128 29.6476 36.4703C29.6476 37.0278 29.1956 37.4798 28.6381 37.4798Z" fill="black"/>
<path d="M50.5483 40.9911H43.7512C43.5964 40.9935 43.4442 41.0321 43.3069 41.1036C43.1695 41.1751 43.0508 41.2777 42.96 41.4032C42.8307 41.5751 42.5735 41.7689 42.0639 41.9299C40.8776 42.3042 40.4033 42.4175 38.9025 42.3785C37.6479 42.348 35.4229 42.4919 34.784 41.6275C34.6469 41.4339 34.466 41.2753 34.2561 41.1647C34.0462 41.0541 33.8131 40.9946 33.5758 40.9911H25.9827C25.8687 40.9895 25.7557 41.0115 25.6507 41.0558C25.5457 41.1001 25.451 41.1656 25.3727 41.2484C25.2943 41.3311 25.234 41.4291 25.1954 41.5364C25.1569 41.6436 25.141 41.7577 25.1487 41.8713C25.1914 42.3115 25.5742 42.7528 26.9385 42.7528C29.6659 42.7528 30.1718 42.715 31.6007 43.4246C33.0296 44.1342 36.3629 43.2381 38.5501 43.6124C40.7374 43.9866 42.6186 42.4907 43.8622 42.7528C44.8217 42.954 49.2108 43.5526 50.9689 42.4553C51.1156 42.3646 51.2287 42.2284 51.2909 42.0675C51.353 41.9065 51.3609 41.7297 51.3133 41.5639C51.2656 41.398 51.1651 41.2523 51.027 41.1489C50.8889 41.0455 50.7208 40.9901 50.5483 40.9911Z" fill="#FFD200"/>
<path d="M11.2109 15.4453C13.8021 15.4453 15.9375 15.7578 17.6172 16.3828C19.3099 17.0078 20.5664 17.9518 21.3867 19.2148C22.207 20.4779 22.6172 22.0729 22.6172 24C22.6172 25.3021 22.3698 26.4414 21.875 27.418C21.3802 28.3945 20.7292 29.2214 19.9219 29.8984C19.1146 30.5755 18.2422 31.1289 17.3047 31.5586L25.7031 44H18.9844L12.168 33.043H8.94531V44H2.89062V15.4453H11.2109ZM10.7812 20.4062H8.94531V28.1211H10.8984C12.9036 28.1211 14.3359 27.7891 15.1953 27.125C16.0677 26.4479 16.5039 25.4583 16.5039 24.1562C16.5039 22.8021 16.0352 21.8385 15.0977 21.2656C14.1732 20.6927 12.7344 20.4062 10.7812 20.4062Z" fill="#15C0AC"/>
<path d="M66.5273 20.7539C68.8581 20.7539 70.7331 21.3919 72.1523 22.668C73.5716 23.931 74.2812 25.9622 74.2812 28.7617V43H68.3242V30.2461C68.3242 28.6836 68.0378 27.5052 67.4648 26.7109C66.9049 25.9167 66.0195 25.5195 64.8086 25.5195C62.9857 25.5195 61.7422 26.138 61.0781 27.375C60.4141 28.612 60.082 30.3958 60.082 32.7266V43H54.125V21.1641H58.6758L59.4766 23.957H59.8086C60.2773 23.2018 60.8568 22.5898 61.5469 22.1211C62.25 21.6523 63.0247 21.3073 63.8711 21.0859C64.7305 20.8646 65.6159 20.7539 66.5273 20.7539ZM87.3281 43.3906C84.8932 43.3906 82.9076 42.4401 81.3711 40.5391C79.8477 38.625 79.0859 35.819 79.0859 32.1211C79.0859 28.3841 79.8607 25.5586 81.4102 23.6445C82.9596 21.7174 84.9844 20.7539 87.4844 20.7539C88.526 20.7539 89.444 20.8971 90.2383 21.1836C91.0326 21.4701 91.7161 21.8542 92.2891 22.3359C92.875 22.8177 93.3698 23.3581 93.7734 23.957H93.9688C93.8906 23.5404 93.793 22.9284 93.6758 22.1211C93.5716 21.3008 93.5195 20.4609 93.5195 19.6016V12.6094H99.4961V43H94.9258L93.7734 40.168H93.5195C93.1419 40.7669 92.6667 41.3138 92.0938 41.8086C91.5339 42.2904 90.8633 42.6745 90.082 42.9609C89.3008 43.2474 88.3828 43.3906 87.3281 43.3906ZM89.418 38.6445C91.0456 38.6445 92.1914 38.1628 92.8555 37.1992C93.5326 36.2227 93.8906 34.7578 93.9297 32.8047V32.1602C93.9297 30.0378 93.6042 28.4167 92.9531 27.2969C92.3021 26.1641 91.0911 25.5977 89.3203 25.5977C88.0052 25.5977 86.9766 26.1641 86.2344 27.2969C85.4922 28.4297 85.1211 30.0638 85.1211 32.1992C85.1211 34.3346 85.4922 35.9427 86.2344 37.0234C86.9896 38.1042 88.0508 38.6445 89.418 38.6445ZM125.57 32.043C125.57 33.8659 125.323 35.4805 124.828 36.8867C124.346 38.293 123.637 39.4844 122.699 40.4609C121.775 41.4245 120.655 42.1536 119.34 42.6484C118.038 43.1432 116.566 43.3906 114.926 43.3906C113.389 43.3906 111.977 43.1432 110.688 42.6484C109.411 42.1536 108.298 41.4245 107.348 40.4609C106.41 39.4844 105.681 38.293 105.16 36.8867C104.652 35.4805 104.398 33.8659 104.398 32.043C104.398 29.6211 104.828 27.5703 105.688 25.8906C106.547 24.2109 107.771 22.9349 109.359 22.0625C110.948 21.1901 112.842 20.7539 115.043 20.7539C117.087 20.7539 118.897 21.1901 120.473 22.0625C122.061 22.9349 123.305 24.2109 124.203 25.8906C125.115 27.5703 125.57 29.6211 125.57 32.043ZM110.473 32.043C110.473 33.4753 110.629 34.6797 110.941 35.6562C111.254 36.6328 111.742 37.3685 112.406 37.8633C113.07 38.3581 113.936 38.6055 115.004 38.6055C116.059 38.6055 116.911 38.3581 117.562 37.8633C118.227 37.3685 118.708 36.6328 119.008 35.6562C119.32 34.6797 119.477 33.4753 119.477 32.043C119.477 30.5977 119.32 29.3997 119.008 28.4492C118.708 27.4857 118.227 26.763 117.562 26.2812C116.898 25.7995 116.033 25.5586 114.965 25.5586C113.389 25.5586 112.243 26.099 111.527 27.1797C110.824 28.2604 110.473 29.8815 110.473 32.043ZM156.137 20.7539C158.611 20.7539 160.479 21.3919 161.742 22.668C163.018 23.931 163.656 25.9622 163.656 28.7617V43H157.68V30.2461C157.68 28.6836 157.413 27.5052 156.879 26.7109C156.345 25.9167 155.518 25.5195 154.398 25.5195C152.823 25.5195 151.703 26.0859 151.039 27.2188C150.375 28.3385 150.043 29.9466 150.043 32.043V43H144.086V30.2461C144.086 29.2044 143.969 28.332 143.734 27.6289C143.5 26.9258 143.142 26.3984 142.66 26.0469C142.178 25.6953 141.56 25.5195 140.805 25.5195C139.698 25.5195 138.826 25.7995 138.188 26.3594C137.562 26.9062 137.113 27.7201 136.84 28.8008C136.579 29.8685 136.449 31.1771 136.449 32.7266V43H130.492V21.1641H135.043L135.844 23.957H136.176C136.618 23.2018 137.172 22.5898 137.836 22.1211C138.513 21.6523 139.255 21.3073 140.062 21.0859C140.87 20.8646 141.69 20.7539 142.523 20.7539C144.125 20.7539 145.479 21.0143 146.586 21.5352C147.706 22.056 148.565 22.8633 149.164 23.957H149.691C150.342 22.8372 151.26 22.0234 152.445 21.5156C153.643 21.0078 154.874 20.7539 156.137 20.7539ZM182.348 43L175.473 20.5977H175.297C175.323 21.1315 175.362 21.9388 175.414 23.0195C175.479 24.0872 175.538 25.2266 175.59 26.4375C175.642 27.6484 175.668 28.7422 175.668 29.7188V43H170.258V14.4453H178.5L185.258 36.2812H185.375L192.543 14.4453H200.785V43H195.141V29.4844C195.141 28.5859 195.154 27.5508 195.18 26.3789C195.219 25.207 195.264 24.0938 195.316 23.0391C195.368 21.9714 195.408 21.1706 195.434 20.6367H195.258L187.895 43H182.348ZM216.527 20.7539C218.546 20.7539 220.284 21.1445 221.742 21.9258C223.201 22.694 224.327 23.8138 225.121 25.2852C225.915 26.7565 226.312 28.5534 226.312 30.6758V33.5664H212.23C212.296 35.2461 212.797 36.5677 213.734 37.5312C214.685 38.4818 216 38.957 217.68 38.957C219.073 38.957 220.349 38.8138 221.508 38.5273C222.667 38.2409 223.858 37.8112 225.082 37.2383V41.8477C224.001 42.3815 222.868 42.7721 221.684 43.0195C220.512 43.2669 219.086 43.3906 217.406 43.3906C215.219 43.3906 213.279 42.987 211.586 42.1797C209.906 41.3724 208.585 40.1419 207.621 38.4883C206.671 36.8346 206.195 34.7513 206.195 32.2383C206.195 29.6862 206.625 27.5638 207.484 25.8711C208.357 24.1654 209.568 22.8893 211.117 22.043C212.667 21.1836 214.47 20.7539 216.527 20.7539ZM216.566 24.9922C215.408 24.9922 214.444 25.3633 213.676 26.1055C212.921 26.8477 212.484 28.013 212.367 29.6016H220.727C220.714 28.7161 220.551 27.9284 220.238 27.2383C219.939 26.5482 219.483 26.0013 218.871 25.5977C218.272 25.194 217.504 24.9922 216.566 24.9922Z" fill="#15C0AC"/>
</svg>
